<svg xmlns="http://www.w3.org/2000/svg" version="1.1" xmlns:xlink="http://www.w3.org/1999/xlink" xmlns:svgjs="http://svgjs.dev/svgjs" width="1529" height="560" preserveAspectRatio="none" viewBox="0 0 1529 560"><g mask="url(&quot;#SvgjsMask1008&quot;)" fill="none"><path d="M1009.78-55.08C823.18-34.41 709.66 373.86 394.5 375.51 79.34 377.16-62.05 219.94-220.78 218.71" stroke="rgba(0, 0, 0, 1)" stroke-width="2"></path><path d="M1054.58-64.6C856.74-22.18 771.87 491.97 469.38 494.51 166.89 497.05 43.38 247.79-115.82 242.51" stroke="rgba(0, 0, 0, 1)" stroke-width="2"></path><path d="M922.72-17.26C724.52 24.3 641.73 534.99 333.86 538.99 25.98 542.99-99.87 345.54-255.01 342.99" stroke="rgba(0, 0, 0, 1)" stroke-width="2"></path><path d="M1312.18-76.84C1119.97-62.82 982.43 312.69 647.17 313.04 311.91 313.39 157.13 97.41-17.84 94.64" stroke="rgba(0, 0, 0, 1)" stroke-width="2"></path><path d="M919.96-53.42C778.68-37.42 722.89 256.07 455.5 274.78 188.11 293.49 118.1 477.35-8.96 481.98" stroke="rgba(0, 0, 0, 1)" stroke-width="2"></path></g><defs><mask id="SvgjsMask1008"><rect width="1529" height="560" fill="#ffffff"></rect></mask></defs></svg>